<?xml version="1.0" standalone="no"?>
<!DOCTYPE svg PUBLIC "-//W3C//DTD SVG 20010904//EN"
 "http://www.w3.org/TR/2001/REC-SVG-20010904/DTD/svg10.dtd">
<svg version="1.0" xmlns="http://www.w3.org/2000/svg"
 width="246.000000pt" height="205.000000pt" viewBox="0 0 246.000000 205.000000"
 preserveAspectRatio="xMidYMid meet">

<g transform="translate(0.000000,205.000000) scale(0.100000,-0.100000)"
fill="#000000" stroke="none">
<path d="M835 2036 c-188 -38 -344 -130 -457 -270 -311 -386 -186 -954 257
-1171 193 -95 395 -107 595 -36 108 38 181 83 272 170 170 161 246 351 236
590 -8 173 -57 304 -166 444 -90 115 -260 225 -407 262 -86 22 -245 27 -330
11z m316 -205 c182 -57 340 -227 384 -412 46 -196 -6 -386 -146 -534 -118
-123 -251 -180 -424 -178 -80 1 -115 6 -174 26 -126 44 -224 119 -295 226
-156 233 -127 530 69 727 80 80 178 135 285 159 84 19 214 13 301 -14z"/>
<path d="M880 1719 c-104 -20 -225 -105 -284 -197 -34 -54 -66 -152 -66 -202
l0 -40 59 0 59 0 6 43 c21 138 141 260 272 275 l44 5 0 63 c0 72 2 71 -90 53z"/>
<path d="M1680 728 c-41 -55 -142 -151 -198 -188 -23 -15 -20 -18 230 -267
222 -220 258 -253 298 -263 111 -30 211 28 241 140 9 35 9 55 -1 90 -10 40
-42 75 -263 298 -138 138 -254 252 -257 252 -3 -1 -25 -28 -50 -62z"/>
</g>
</svg>
